<svg width="148" height="49" viewBox="0 0 148 49" fill="none" xmlns="http://www.w3.org/2000/svg">
<rect y="6" width="148" height="36" fill="white" fill-opacity="0.05"/>
<rect x="0.5" y="6.5" width="147" height="35" stroke="white" stroke-opacity="0.1"/>
<path d="M25.6531 22.024C25.3971 23.2827 25.0451 24.328 24.5971 25.16C24.1705 25.9707 23.6051 26.664 22.9011 27.24C22.2185 27.7947 21.3651 28.3387 20.3411 28.872C19.6585 29.2133 18.8905 29.5013 18.0371 29.736C17.2051 29.9707 16.3731 30.2053 15.5411 30.44C14.7305 30.6533 13.9731 30.952 13.2691 31.336C12.8638 31.5493 12.4691 31.8373 12.0851 32.2C11.7011 32.5413 11.5625 33.0533 11.6691 33.736L13.0131 42.088C13.1411 43.1333 13.1625 44.232 13.0771 45.384C12.9918 46.536 12.8211 47.56 12.5651 48.456C12.3731 46.9627 12.1171 45.5013 11.7971 44.072C11.4771 42.664 11.1891 41.2453 10.9331 39.816C10.6985 38.3867 10.5705 36.8933 10.5491 35.336C10.5491 34.1627 10.6665 33.032 10.9011 31.944C11.1358 30.8347 11.4558 29.832 11.8611 28.936C12.4158 28.104 13.1518 27.496 14.0691 27.112C14.9865 26.7067 16.0318 26.344 17.2051 26.024L19.4451 25.448C19.8718 24.5307 20.2025 23.816 20.4371 23.304C20.6718 22.792 20.8638 22.408 21.0131 22.152C21.1625 21.896 21.2905 21.704 21.3971 21.576C21.5038 21.448 21.6318 21.32 21.7811 21.192C22.1438 20.872 22.6451 20.744 23.2851 20.808C23.9251 20.8507 24.5331 20.904 25.1091 20.968C25.4078 20.9893 25.5785 21.1173 25.6211 21.352C25.6851 21.5867 25.6958 21.8107 25.6531 22.024ZM33.6269 25.184C32.6029 25.376 31.5789 25.568 30.5549 25.76C29.5309 25.952 28.5069 26.144 27.4829 26.336L29.4029 22.528C30.4269 22.336 31.4509 22.144 32.4749 21.952C33.4989 21.76 34.5229 21.568 35.5469 21.376L33.6269 25.184ZM29.3566 19.232C28.7806 18.016 28.098 17.44 27.3086 17.504C26.4766 17.568 25.6553 17.9627 24.8446 18.688C24.4393 19.0507 24.034 19.456 23.6286 19.904C23.2233 20.3307 22.8393 20.8107 22.4766 21.344C22.114 21.8773 21.7833 22.368 21.4846 22.816C21.2073 23.2427 20.9513 23.6373 20.7166 24H20.1406C20.1833 23.9573 20.2366 23.8187 20.3006 23.584C20.3433 23.4773 20.4073 23.328 20.4926 23.136C20.578 22.9227 20.6846 22.6773 20.8126 22.4C20.9833 22.0587 21.186 21.6533 21.4206 21.184C21.6553 20.7147 21.9326 20.1813 22.2526 19.584C22.85 18.4747 23.5753 17.3973 24.4286 16.352C25.282 15.2853 26.2313 14.464 27.2766 13.888C28.2793 13.3333 29.314 13.3653 30.3806 13.984C31.042 14.368 31.0953 15.168 30.5406 16.384C30.2633 16.9813 30.0286 17.5253 29.8366 18.016C29.6446 18.4853 29.4846 18.8907 29.3566 19.232ZM35.8789 40.528C36.9029 40.1013 37.9909 39.6853 39.1429 39.28C40.3162 38.8747 41.4362 38.48 42.5029 38.096L41.5749 39.568C40.4655 39.952 39.3135 40.368 38.1189 40.816C36.9029 41.2427 35.8042 41.7013 34.8229 42.192L35.8789 40.528ZM43.8906 32.552C43.5493 32.8293 43.2613 33.1707 43.0266 33.576C42.792 33.96 42.568 34.3653 42.3546 34.792C41.864 35.7307 41.2346 36.36 40.4666 36.68C39.6986 36.9787 38.632 36.9893 37.2666 36.712C37.096 36.6693 36.7866 36.584 36.3386 36.456C35.912 36.328 35.3466 36.1573 34.6426 35.944C33.2346 35.5173 32.4026 35.1973 32.1466 34.984C31.976 34.8347 32.04 34.696 32.3386 34.568C33.7893 34.056 35.3466 33.6613 37.0106 33.384C38.6746 33.1067 40.2746 32.7653 41.8106 32.36C42.3866 32.1893 42.8773 31.88 43.2826 31.432V31.464C43.4533 31.272 43.6346 31.1867 43.8266 31.208C44.1466 31.2507 44.296 31.4533 44.2746 31.816C44.2533 32.1787 44.1253 32.424 43.8906 32.552ZM51.6601 7.736C52.6841 7.30933 53.7721 6.89333 54.9241 6.488C56.0975 6.08267 57.2175 5.688 58.2841 5.304L57.3561 6.776C56.2468 7.16 55.0948 7.56533 53.9001 7.992C52.6841 8.44 51.5855 8.90933 50.6041 9.4L51.6601 7.736ZM42.6801 33.568C42.5308 33.568 42.4028 33.4827 42.2961 33.312C42.1895 33.12 42.1361 32.9493 42.1361 32.8C42.1361 32.5227 42.2961 32.192 42.6161 31.808V31.776C42.8508 31.2213 43.1601 30.6773 43.5441 30.144C43.9281 29.5893 44.2908 29.1733 44.6321 28.896C45.1228 28.512 45.5815 28.2453 46.0081 28.096C46.4561 27.9467 47.1388 27.7653 48.0561 27.552C48.9735 27.3387 50.1148 27.0827 51.4801 26.784L50.8721 19.968L52.9521 16.512L53.6561 13.92C54.8295 13.2373 55.9388 12.5973 56.9841 12C58.0508 11.4027 59.1068 10.8053 60.1521 10.208C61.1975 9.61067 62.3068 8.97066 63.4801 8.288C63.5441 8.24533 63.6188 8.224 63.7041 8.224C63.7895 8.224 63.8321 8.288 63.8321 8.416C63.8321 8.43733 63.8321 8.45867 63.8321 8.48C63.8321 8.48 63.8321 8.49067 63.8321 8.512L62.7761 12.256C61.0908 13.2373 59.5228 14.1333 58.0721 14.944C56.6215 15.7547 55.0535 16.6507 53.3681 17.632L54.5841 32.608L52.3121 36L51.6721 28.832C51.1175 29.8987 50.3495 30.6133 49.3681 30.976C48.7921 31.1893 48.1948 31.392 47.5761 31.584C46.9575 31.7547 46.3068 31.9147 45.6241 32.064V32.096C45.0268 32.2453 44.5255 32.4053 44.1201 32.576C43.7361 32.7467 43.4481 32.928 43.2561 33.12C43.0215 33.4187 42.8295 33.568 42.6801 33.568ZM60.0729 30.176C60.0729 28.7467 60.0409 27.456 59.9769 26.304C59.9129 25.1307 59.8382 23.9467 59.7529 22.752C59.6675 21.536 59.5822 20.1493 59.4969 18.592L61.8649 14.816L62.4409 25.472C62.4835 26.0907 62.4622 26.7093 62.3769 27.328C62.3129 27.9253 62.2169 28.4587 62.0889 28.928C61.4702 31.36 60.0835 33.152 57.9289 34.304C57.1609 34.7093 55.2835 35.2747 52.2969 36L52.3289 35.872L53.0329 31.872C53.9715 31.7227 54.7822 31.5947 55.4649 31.488C56.1689 31.36 56.7555 31.2427 57.2249 31.136C58.1849 30.9013 59.1342 30.5813 60.0729 30.176ZM65.2891 18.792L67.6571 15.016L68.5531 28.616L66.1851 32.392L65.2891 18.792ZM86.9811 13.44C87.0878 13.504 87.1731 13.5787 87.2371 13.664C87.3011 13.7493 87.3438 13.8667 87.3651 14.016V14.048C87.3651 14.2613 87.3118 14.464 87.2051 14.656C87.1198 14.848 87.0131 15.04 86.8851 15.232C86.7998 15.1253 86.7038 15.0507 86.5971 15.008C86.5118 14.9653 86.4158 14.9013 86.3091 14.816C85.6265 15.7333 84.8265 16.4373 83.9091 16.928C82.9918 17.44 81.8825 17.856 80.5811 18.176L80.3891 18.208C80.3891 18.1653 80.4851 18.0907 80.6771 17.984C81.3598 17.5573 82.0851 17.0987 82.8531 16.608C83.5998 16.1173 84.3038 15.6373 84.9651 15.168C85.1358 15.0613 85.2851 14.9547 85.4131 14.848C85.5411 14.72 85.6478 14.6133 85.7331 14.528C85.4345 14.3573 85.1038 14.144 84.7411 13.888C84.3998 13.6107 84.2291 13.248 84.2291 12.8C84.2291 12.3307 84.4318 11.872 84.8371 11.424C85.2425 10.976 85.6158 10.6773 85.9571 10.528C86.0425 10.4853 86.1171 10.4533 86.1811 10.432C86.2665 10.4107 86.3518 10.4 86.4371 10.4C86.7571 10.4 86.9811 10.528 87.1091 10.784C87.2585 11.04 87.3331 11.3493 87.3331 11.712C87.3331 12.1173 87.2158 12.6933 86.9811 13.44ZM85.7971 11.712C85.6691 11.7333 85.5305 11.7867 85.3811 11.872C85.2531 11.9573 85.1891 12.0747 85.1891 12.224C85.1891 12.4373 85.3491 12.6293 85.6691 12.8C85.9891 12.9493 86.2238 13.0667 86.3731 13.152C86.4158 13.024 86.4371 12.9067 86.4371 12.8C86.4371 12.6933 86.4371 12.5973 86.4371 12.512C86.4371 12.2773 86.3945 12.0853 86.3091 11.936C86.2238 11.7867 86.0851 11.712 85.8931 11.712H85.7971ZM87.3541 29.256C87.3541 28.3813 87.2688 27.6027 87.0981 26.92C86.9488 26.2373 86.7675 25.5653 86.5541 24.904L88.2821 20.904C88.9648 22.3333 89.3061 23.784 89.3061 25.256C89.3061 25.5547 89.2955 25.864 89.2741 26.184C89.2528 26.504 89.2101 26.8133 89.1461 27.112C88.7621 29.2667 87.9728 31.2187 86.7781 32.968C85.6048 34.632 84.1221 35.8053 82.3301 36.488C81.8608 36.6373 81.4128 36.7653 80.9861 36.872C80.5595 36.9573 80.1541 37 79.7701 37C79.4075 37 79.0555 36.9573 78.7141 36.872C78.3728 36.7867 78.0528 36.6693 77.7541 36.52C77.0928 36.2 76.5595 35.656 76.1541 34.888C75.7701 34.12 75.5781 33.1707 75.5781 32.04C75.5781 31.0373 75.8021 29.864 76.2501 28.52C76.7195 27.1547 77.4235 25.6187 78.3621 23.912C78.6181 23.4213 78.8955 22.9093 79.1941 22.376C79.5141 21.8427 79.8128 21.3413 80.0901 20.872L80.5701 21.128C80.9968 21.4053 81.4235 21.6933 81.8501 21.992C82.2768 22.2693 82.7035 22.5573 83.1301 22.856C82.9595 23.176 82.7888 23.496 82.6181 23.816C82.4475 24.1147 82.2768 24.4133 82.1061 24.712C81.9355 25.0107 81.8075 25.2347 81.7221 25.384C81.6368 25.5333 81.5515 25.6933 81.4661 25.864C81.3808 26.0133 81.2528 26.2373 81.0821 26.536L78.7141 24.936C78.4368 25.576 78.1381 26.2267 77.8181 26.888C77.5195 27.5493 77.2208 28.2747 76.9221 29.064C76.7728 29.4267 76.6981 29.7893 76.6981 30.152C76.6981 31.0693 77.2528 31.7627 78.3621 32.232C79.0448 32.36 79.7061 32.424 80.3461 32.424C81.4768 32.424 82.5328 32.232 83.5141 31.848C85.0501 31.2293 86.3301 30.4613 87.3541 29.544V29.256ZM99.7696 10.272L98.3616 12.096C97.8496 12.4373 97.199 12.7253 96.4096 12.96C95.6416 13.216 94.831 13.3333 93.9776 13.312C93.1243 13.312 92.3136 13.12 91.5456 12.736C91.3536 12.6293 91.1723 12.6293 91.0016 12.736C90.831 12.864 90.671 12.9707 90.5216 13.056C90.3723 13.1413 90.1803 13.3013 89.9456 13.536C89.6896 13.792 89.4656 14.0053 89.2736 14.176C89.0816 14.3467 88.9856 14.3893 88.9856 14.304C88.9643 14.2187 89.1136 13.8987 89.4336 13.344C89.7536 12.7893 90.1056 12.3307 90.4896 11.968C90.8736 11.6053 91.3536 11.2853 91.9296 11.008C92.1003 10.9227 92.207 10.9013 92.2496 10.944C92.271 10.9653 92.3563 11.0187 92.5056 11.104C93.3163 11.5093 94.1803 11.712 95.0976 11.712C96.015 11.712 96.879 11.5733 97.6896 11.296C98.5003 10.9973 99.151 10.6347 99.6416 10.208C99.6843 10.1653 99.7163 10.1653 99.7376 10.208C99.759 10.2293 99.7696 10.2507 99.7696 10.272ZM92.7266 18.792L95.0946 15.016L95.9906 28.616L93.6226 32.392L92.7266 18.792ZM104.781 24.208C104.29 24.1013 103.981 23.888 103.853 23.568C103.725 23.248 103.725 22.864 103.853 22.416C103.96 21.9893 104.109 21.5413 104.301 21.072C104.45 20.7307 104.621 20.3893 104.813 20.048C104.984 19.6853 105.176 19.3973 105.389 19.184C105.602 18.9707 105.826 18.9067 106.061 18.992C106.296 19.0773 106.541 19.3867 106.797 19.92C107.288 20.9227 107.192 22 106.509 23.152C106.04 23.984 105.464 24.336 104.781 24.208ZM104.493 22C104.514 22.4267 104.92 22.544 105.709 22.352C106.477 22.16 106.562 21.776 105.965 21.2C105.538 20.8373 105.186 20.8053 104.909 21.104C104.632 21.4027 104.493 21.7013 104.493 22ZM105.641 32.552C105.299 32.8293 105.011 33.1707 104.777 33.576C104.542 33.96 104.318 34.3653 104.105 34.792C103.614 35.7307 102.985 36.36 102.217 36.68C101.449 36.9787 100.382 36.9893 99.0166 36.712C98.846 36.6693 98.5366 36.584 98.0886 36.456C97.662 36.328 97.0966 36.1573 96.3926 35.944C94.9846 35.5173 94.1526 35.1973 93.8966 34.984C93.726 34.8347 93.79 34.696 94.0886 34.568C95.5393 34.056 97.0966 33.6613 98.7606 33.384C100.425 33.1067 102.025 32.7653 103.561 32.36C104.137 32.1893 104.627 31.88 105.033 31.432V31.464C105.203 31.272 105.385 31.1867 105.577 31.208C105.897 31.2507 106.046 31.4533 106.025 31.816C106.003 32.1787 105.875 32.424 105.641 32.552ZM120.512 3.44C120.619 3.504 120.704 3.57867 120.768 3.664C120.832 3.74933 120.875 3.86667 120.896 4.016V4.048C120.896 4.26133 120.843 4.464 120.736 4.656C120.651 4.848 120.544 5.04 120.416 5.232C120.331 5.12533 120.235 5.05067 120.128 5.008C120.043 4.96533 119.947 4.90133 119.84 4.816C119.158 5.73333 118.358 6.43733 117.44 6.928C116.523 7.44 115.414 7.856 114.112 8.176L113.92 8.208C113.92 8.16533 114.016 8.09067 114.208 7.984C114.891 7.55733 115.616 7.09867 116.384 6.608C117.131 6.11733 117.835 5.63733 118.496 5.168C118.667 5.06133 118.816 4.95467 118.944 4.848C119.072 4.72 119.179 4.61333 119.264 4.528C118.966 4.35733 118.635 4.144 118.272 3.888C117.931 3.61067 117.76 3.248 117.76 2.8C117.76 2.33067 117.963 1.872 118.368 1.424C118.774 0.976 119.147 0.677333 119.488 0.528C119.574 0.485333 119.648 0.453333 119.712 0.432C119.798 0.410666 119.883 0.4 119.968 0.4C120.288 0.4 120.512 0.528 120.64 0.784C120.79 1.04 120.864 1.34933 120.864 1.712C120.864 2.11733 120.747 2.69333 120.512 3.44ZM119.328 1.712C119.2 1.73333 119.062 1.78667 118.912 1.872C118.784 1.95733 118.72 2.07467 118.72 2.224C118.72 2.43733 118.88 2.62933 119.2 2.8C119.52 2.94933 119.755 3.06667 119.904 3.152C119.947 3.024 119.968 2.90667 119.968 2.8C119.968 2.69333 119.968 2.59733 119.968 2.512C119.968 2.27733 119.926 2.08533 119.84 1.936C119.755 1.78667 119.616 1.712 119.424 1.712H119.328ZM118.939 14.184C117.915 14.376 116.891 14.568 115.867 14.76C114.843 14.952 113.819 15.144 112.795 15.336L114.715 11.528C115.739 11.336 116.763 11.144 117.787 10.952C118.811 10.76 119.835 10.568 120.859 10.376L118.939 14.184ZM117.686 19.792C118.304 19.792 118.774 20.016 119.094 20.464C119.414 20.8907 119.574 21.4133 119.574 22.032C119.574 22.48 119.488 23.0453 119.318 23.728C118.998 24.5813 118.614 25.4027 118.166 26.192C117.739 26.96 117.248 27.696 116.694 28.4C116.011 29.2533 115.222 29.9253 114.326 30.416C113.43 30.9067 112.384 31.2907 111.19 31.568C111.019 31.5893 110.838 31.632 110.646 31.696C110.475 31.7387 110.304 31.7813 110.134 31.824H110.102V31.856C109.632 31.984 109.152 32.112 108.662 32.24C108.171 32.368 107.659 32.4853 107.126 32.592C106.038 32.8267 105.28 33.1573 104.854 33.584C104.619 33.8827 104.427 34.032 104.278 34.032C104.128 34.032 104 33.9467 103.894 33.776C103.787 33.6053 103.734 33.4453 103.734 33.296C103.734 32.9973 103.894 32.656 104.214 32.272V32.24C104.32 32.0267 104.416 31.824 104.502 31.632C104.608 31.44 104.715 31.2587 104.822 31.088C105.312 30.2987 105.75 29.7227 106.134 29.36C106.539 28.9973 107.019 28.752 107.574 28.624C108.128 28.4747 108.864 28.3573 109.782 28.272V28.24H109.846C109.91 28.2187 110.016 28.208 110.166 28.208C110.336 28.1867 110.432 28.144 110.454 28.08H110.486L111.126 27.952C112.256 25.3493 113.622 23.1413 115.222 21.328C116.096 20.304 116.918 19.792 117.686 19.792ZM113.174 26.192C113.174 26.4267 113.248 26.6507 113.398 26.864C113.568 27.056 113.728 27.184 113.878 27.248C114.603 27.184 115.36 26.96 116.15 26.576C116.47 26.4053 116.63 26.1493 116.63 25.808C116.63 25.3387 116.48 24.8907 116.182 24.464C115.883 24.0373 115.627 23.7813 115.414 23.696C114.902 23.8667 114.507 24.144 114.23 24.528C113.952 24.912 113.664 25.296 113.366 25.68C113.238 25.8293 113.174 26 113.174 26.192ZM128.313 24.64C127.779 26.7947 126.67 28.4373 124.985 29.568C123.321 30.6987 121.262 31.424 118.809 31.744C117.785 31.872 116.825 31.9573 115.929 32C115.054 32.0213 114.243 31.9893 113.497 31.904C113.027 31.8613 112.601 31.7227 112.217 31.488C111.854 31.232 111.662 30.8693 111.641 30.4C111.854 29.568 112.067 28.8 112.281 28.096C112.515 27.392 112.739 26.752 112.953 26.176C113.102 26.688 113.443 27.0613 113.977 27.296C114.51 27.5307 115.139 27.6693 115.865 27.712C116.611 27.7333 117.337 27.7227 118.041 27.68C119.427 27.5733 120.867 27.3707 122.361 27.072C123.875 26.7733 125.166 26.3893 126.233 25.92C126.233 24.8533 126.201 23.6693 126.137 22.368C126.073 21.0667 126.019 19.8613 125.977 18.752C125.955 18.0907 125.923 17.6 125.881 17.28C125.859 16.96 125.827 16.704 125.785 16.512C125.763 16.32 125.731 16.096 125.689 15.84C125.667 15.5627 125.635 15.1573 125.593 14.624L127.993 10.752L128.697 21.088C128.761 22.3253 128.633 23.5093 128.313 24.64ZM131.945 18.792L134.313 15.016L135.209 28.616L132.841 32.392L131.945 18.792Z" fill="#CCCCCC"/>
</svg>
